<svg width="28" height="34" viewBox="0 0 28 34" fill="none" xmlns="http://www.w3.org/2000/svg">
<path d="M9.32666 33.4395L10.4033 28.3198C8.29395 28.2026 6.49219 27.6973 4.99805 26.8037C3.51855 25.8955 2.3833 24.709 1.59229 23.2441C0.815918 21.7793 0.427734 20.0947 0.427734 18.1904C0.427734 15.5977 1.02832 13.2686 2.22949 11.2031C3.44531 9.12305 5.17383 7.52637 7.41504 6.41309C9.6709 5.2998 12.3516 4.69922 15.457 4.61133L16.3579 0.414551H18.5552L17.6982 4.61133C20.8916 4.81641 23.3379 5.76855 25.0371 7.46777C26.751 9.15234 27.6079 11.4668 27.6079 14.4111C27.6079 17.1504 26.9927 19.5747 25.7622 21.6841C24.5317 23.7788 22.7959 25.3828 20.5547 26.4961C18.3135 27.6094 15.6987 28.2173 12.7104 28.3198L11.5898 33.4395H9.32666ZM13.106 26.2983C16.9731 26.1812 19.9688 25.1045 22.0928 23.0684C24.2314 21.0322 25.3008 18.1904 25.3008 14.543C25.3008 12.1553 24.627 10.2729 23.2793 8.896C21.9316 7.50439 19.9248 6.76465 17.2588 6.67676L13.106 26.2983ZM14.9956 6.67676C12.4907 6.7207 10.3154 7.19678 8.46973 8.10498C6.63867 9.01318 5.21045 10.3315 4.18506 12.0601C3.17432 13.7886 2.66895 15.7734 2.66895 18.0146C2.66895 20.5635 3.40137 22.5703 4.86621 24.0352C6.33105 25.4854 8.33057 26.2397 10.8647 26.2983L14.9956 6.67676Z" fill="white"/>
</svg>
